<svg xmlns="http://www.w3.org/2000/svg" viewBox="0 0 24 24" fill="none">
  <defs>
    <linearGradient id="instagramGradient" x1="0%" y1="0%" x2="100%" y2="100%">
      <stop offset="0%" stop-color="#fd5" />
      <stop offset="15%" stop-color="#fd5" />
      <stop offset="45%" stop-color="#fc5" />
      <stop offset="60%" stop-color="#d62e7a" />
      <stop offset="90%" stop-color="#4a63f7" />
    </linearGradient>
  </defs>
  <rect x="0" y="0" width="24" height="24" rx="5" fill="url(#instagramGradient)"/>
  <path fill-rule="evenodd" clip-rule="evenodd" d="M12 4C7.58172 4 4 7.58172 4 12C4 16.4183 7.58172 20 12 20C16.4183 20 20 16.4183 20 12C20 7.58172 16.4183 4 12 4ZM12 6.5C14.4853 6.5 16.5 8.51472 16.5 11C16.5 13.4853 14.4853 15.5 12 15.5C9.51472 15.5 7.5 13.4853 7.5 11C7.5 8.51472 9.51472 6.5 12 6.5ZM17.5 7C17.7761 7 18 6.77614 18 6.5C18 6.22386 17.7761 6 17.5 6C17.2239 6 17 6.22386 17 6.5C17 6.77614 17.2239 7 17.5 7Z" fill="#FFFFFF"/>
</svg>