<svg xmlns="http://www.w3.org/2000/svg" viewBox="0 0 24 24" fill="none">
  <circle cx="12" cy="12" r="12" fill="#007DC5"/>
  <g fill="#FFC220" transform="translate(12, 12)">
    <path d="M-1.125 -5.8125L1.125 -5.8125L1.6875 -8.25L-1.6875 -8.25L-1.125 -5.8125Z" transform="rotate(0)"/>
    <path d="M-1.125 -5.8125L1.125 -5.8125L1.6875 -8.25L-1.6875 -8.25L-1.125 -5.8125Z" transform="rotate(60)"/>
    <path d="M-1.125 -5.8125L1.125 -5.8125L1.6875 -8.25L-1.6875 -8.25L-1.125 -5.8125Z" transform="rotate(120)"/>
    <path d="M-1.125 -5.8125L1.125 -5.8125L1.6875 -8.25L-1.6875 -8.25L-1.125 -5.8125Z" transform="rotate(180)"/>
    <path d="M-1.125 -5.8125L1.125 -5.8125L1.6875 -8.25L-1.6875 -8.25L-1.125 -5.8125Z" transform="rotate(240)"/>
    <path d="M-1.125 -5.8125L1.125 -5.8125L1.6875 -8.25L-1.6875 -8.25L-1.125 -5.8125Z" transform="rotate(300)"/>
  </g>
</svg>